<?xml version="1.0" encoding="utf-8"?>
<!-- Generator: Adobe Illustrator 16.0.0, SVG Export Plug-In . SVG Version: 6.00 Build 0)  -->
<!DOCTYPE svg PUBLIC "-//W3C//DTD SVG 1.1//EN" "http://www.w3.org/Graphics/SVG/1.1/DTD/svg11.dtd">
<svg version="1.1" id="Layer_1" xmlns="http://www.w3.org/2000/svg" xmlns:xlink="http://www.w3.org/1999/xlink" x="0px" y="0px"
	 width="64px" height="64px" viewBox="0 0 64 64" enable-background="new 0 0 64 64" xml:space="preserve">
<g>
	<g>
		<path fill="#FB6620" d="M61.42,24.988c-1.31-0.561-6.923,0.062-8.484-1.348c-1.099-1.015-1.169-2.853-1.601-5.302
			c-0.718-4.105-1.018-5.034-1.766-6.651C46.848,5.932,40.32,1,34.391,1H20.647C9.835,1,1,9.824,1,20.596v22.849
			C1,54.194,9.835,63,20.647,63h22.58c10.812,0,19.586-8.806,19.649-19.556L63,27.619C63,27.619,63,25.662,61.42,24.988z M20.896,17
			h10.896c2.079,0,3.765,1.439,3.765,3.488c0,2.053-1.686,3.512-3.765,3.512H20.896c-2.079,0-3.763-1.459-3.763-3.512
			C17.134,18.439,18.817,17,20.896,17z M43.04,47H20.896c-2.079,0-3.763-1.971-3.763-3.998c0-2.051,1.684-4.002,3.763-4.002H43.04
			c2.059,0,3.743,1.951,3.743,4.002C46.783,45.029,45.099,47,43.04,47z"/>
	</g>
	<path fill="#EF5830" d="M61.42,24.988c-1.31-0.561-6.923,0.062-8.484-1.348c-0.348-0.322-0.586-0.736-0.773-1.217
		c-0.927,6.579-3.583,12.184-7.912,16.808c1.562,0.597,2.533,2.246,2.533,3.983c0,2.027-1.685,3.785-3.743,3.785h-9.399
		c-3.905,2-8.222,2.635-12.765,2.635c-7.532,0-14.445-2.699-19.876-7.098v0.907C1,54.194,9.835,63,20.647,63h22.58
		c10.812,0,19.586-8.806,19.649-19.556L63,27.619C63,27.619,63,25.662,61.42,24.988z"/>
	<g>
		<path fill="#F9A121" d="M20.896,27h10.896c2.079,0,3.798-3.523,3.798-5.574c0-0.426-0.02-0.226-0.254,0.305
			c-0.633,1.41-1.896,2.27-3.544,2.27H20.896c-1.647,0-2.99-0.938-3.541-2.291c-0.218-0.578-0.233-0.67-0.233-0.244
			C17.122,23.517,18.817,27,20.896,27z"/>
		<path fill="#F9A121" d="M20.647,3h13.743c5.93,0,12.457,5.143,15.179,10.898c0.748,1.617,1.048,2.651,1.766,6.757
			c0.432,2.449,0.502,4.34,1.601,5.354c1.562,1.409,7.175,0.813,8.484,1.374c1.255,0.535,1.51,1.878,1.563,2.409L63,27.612
			c0,0,0-1.953-1.58-2.627c-1.31-0.561-6.923,0.062-8.484-1.347c-1.099-1.015-1.169-2.852-1.601-5.301
			c-0.718-4.105-1.018-5.033-1.766-6.65C46.848,5.932,40.32,1,34.391,1H20.647C9.835,1,1,9.824,1,20.596v2.422
			C1,12.246,9.835,3,20.647,3z"/>
		<path fill="#F9A121" d="M20.896,49H43.04c2.059,0,3.832-3.017,3.832-5.046c0-0.428,0.02-0.571-0.312,0.391
			C45.906,45.75,44.669,47,43.04,47H20.896c-1.646,0-2.818-1.188-3.443-2.5c-0.312-0.876-0.361-0.908-0.361-0.482
			C17.092,46.047,18.817,49,20.896,49z"/>
	</g>
</g>
</svg>
